# xmcd
#
# Track frame offsets:
#	150
#	16642
#	35272
#	53542
#	68115
#	86871
#	104949
#	121360
#	141296
#	157799
#	172496
#	198207
#	218600
#	236536
#	258640
#	279919
#	294127
#	321357
#	339225
#
# Disc length: 4739 seconds
#
# Revision: 1
# Processed by: cddbd v1.5.2PL0 Copyright (c) Steve Scherf et al.
# Submitted via: audiograbber 1.83.01
#
DISCID=0f128113
DTITLE=Григорий Лепс - Измены
DYEAR=2010
DGENRE=Chanson
TTITLE0=Измены (дуэт с В. Ильинской)
TTITLE1=Водопад
TTITLE2=Берега
TTITLE3=Я тебя не люблю
TTITLE4=Бессоница
TTITLE5=Черный снегопад
TTITLE6=Лодка
TTITLE7=Беги по небу
TTITLE8=Озеро надежды
TTITLE9=Ты опоздала
TTITLE10=Свои
TTITLE11=Вьюга
TTITLE12=Слова
TTITLE13=Дорога
TTITLE14=Натали
TTITLE15=Парус
TTITLE16=На струнах дождя
TTITLE17=Я тебе не верю (дуэт с И. Аллегровой)
TTITLE18=Она не твоя (дуэт с С. Пьехой)
EXTD=
EXTT0=
EXTT1=
EXTT2=
EXTT3=
EXTT4=
EXTT5=
EXTT6=
EXTT7=
EXTT8=
EXTT9=
EXTT10=
EXTT11=
EXTT12=
EXTT13=
EXTT14=
EXTT15=
EXTT16=
EXTT17=
EXTT18=
PLAYORDER=
